<svg xmlns="http://www.w3.org/2000/svg" viewBox="0 0 212.14 80.2"><defs><style>.cls-1{fill:#897353;}.cls-2{fill:#1b395b;}</style></defs><g id="Layer_2" data-name="Layer 2"><g id="Layer_1-2" data-name="Layer 1"><path class="cls-1" d="M60.9,75.59a17,17,0,0,1-8.66-2.1,22.29,22.29,0,0,0-11-2.62h0a22.28,22.28,0,0,0-11,2.64,17.09,17.09,0,0,1-8.68,2.11h0a20.07,20.07,0,0,1-3.46-.28,40.68,40.68,0,0,0,9.71,4.86,25.91,25.91,0,0,0,4.77-1.88,17.09,17.09,0,0,1,8.68-2.11h0a17.12,17.12,0,0,1,8.67,2.1,26.46,26.46,0,0,0,4.78,1.88,41.5,41.5,0,0,0,9.71-4.88,20.4,20.4,0,0,1-3.5.28Z"/><path class="cls-1" d="M21.57,71.64a22.16,22.16,0,0,0,11-2.64,17,17,0,0,1,8.68-2.1h0A17.13,17.13,0,0,1,49.93,69a22.24,22.24,0,0,0,11,2.63h0a21.94,21.94,0,0,0,10.61-2.46A41.68,41.68,0,0,0,77,61.76a22.71,22.71,0,0,0-7.37,2.4,16.89,16.89,0,0,1-8.68,2.11h0a17.1,17.1,0,0,1-8.67-2.09,22.27,22.27,0,0,0-11-2.63h0a22.39,22.39,0,0,0-11,2.64,17,17,0,0,1-8.68,2.11h0a17,17,0,0,1-8.67-2.1,22.34,22.34,0,0,0-7.36-2.39A41.3,41.3,0,0,0,11,69.21a22,22,0,0,0,10.58,2.43Z"/><path class="cls-1" d="M21.54,62.32h0a22.29,22.29,0,0,0,11-2.63,17,17,0,0,1,8.68-2.11h0a17.13,17.13,0,0,1,8.67,2.09,22.24,22.24,0,0,0,11,2.63h0a22.24,22.24,0,0,0,11-2.64,16.89,16.89,0,0,1,7.15-2.06A41.28,41.28,0,0,0,81,52.22H80.6a22.17,22.17,0,0,0-11,2.64A17,17,0,0,1,60.92,57h0a17.1,17.1,0,0,1-8.67-2.09,22.27,22.27,0,0,0-11-2.63h0a22.39,22.39,0,0,0-11,2.64A17,17,0,0,1,21.56,57h0a17,17,0,0,1-8.67-2.1,22.26,22.26,0,0,0-11-2.62H1.51a41.32,41.32,0,0,0,1.9,5.38,16.94,16.94,0,0,1,7.15,2.05A22.29,22.29,0,0,0,21.54,62.32Z"/><path class="cls-2" d="M56.62,23.26a1.38,1.38,0,1,0,1.14,1.36A1.26,1.26,0,0,0,56.62,23.26Z"/><path class="cls-2" d="M43.77,25.63a1.9,1.9,0,1,0-1.89,2.1A2,2,0,0,0,43.77,25.63Z"/><path class="cls-2" d="M57.06,31.74a1,1,0,0,1,.13.09.21.21,0,0,0,0-.06,1.83,1.83,0,0,0,.3-1.44A2.25,2.25,0,0,0,55.7,28.9a12.57,12.57,0,0,0-2.31-.19,7.09,7.09,0,0,0-2.79.39,2.77,2.77,0,0,0-1.31,1,1.52,1.52,0,0,0,0,1.58c0,.06.07.1.1.15a1.4,1.4,0,0,1,1-.37,1.3,1.3,0,0,1,1.36,1.23,1.2,1.2,0,0,1-.18.58,3.89,3.89,0,0,0,2,.81,3.35,3.35,0,0,0,1.81-.82l0,0a1.14,1.14,0,0,1,0-.94A1.3,1.3,0,0,1,57.06,31.74Z"/><path class="cls-2" d="M28.83,35.08a.39.39,0,0,0-.27.47.39.39,0,0,0,.48.27h0l6.15-1.6L41.43,33h0a.51.51,0,0,0,.39-.62.52.52,0,0,0-.62-.4L35,33.34Z"/><path class="cls-2" d="M38.46,36l3.3-.85h.06a.49.49,0,0,0,.34-.61.5.5,0,0,0-.61-.35l-3.34.91c-1.1.33-2.24.57-3.32,1a63.63,63.63,0,0,0-6.42,2.57.38.38,0,1,0,.32.7,63.77,63.77,0,0,1,6.37-2.44C36.24,36.54,37.36,36.32,38.46,36Z"/><path class="cls-2" d="M41.23,0A41.1,41.1,0,0,0,.65,48.38l1.22-.05a27.66,27.66,0,0,1,7,.84h0a39.81,39.81,0,0,1-.39-5.25c0-19.74,14.67-35.8,32.71-35.8A30.57,30.57,0,0,1,59,13.86l.27,0a6.84,6.84,0,0,1,6.19,5.36A7.67,7.67,0,0,1,65,24.1c0,.51.07,1,.11,1.52a7.89,7.89,0,0,1,1.53,2.9l.92.23,6.11,2a3.41,3.41,0,0,1,2.17,4.3,3,3,0,0,1-.24.56,3.32,3.32,0,0,1,.52.92,3.41,3.41,0,0,1-3.84,4.53c0,.09-.09.17-.13.26a3.43,3.43,0,0,1-4.61,1.28L63.41,40.3a11.68,11.68,0,0,1-1.62,1.45,21.1,21.1,0,0,1-3.88,2.15l-.19.08-.47.21c.14,1,.43,2.66.66,3.94.28,1.57.57,3.24.81,4.77a17.31,17.31,0,0,0,2.19.13,13.24,13.24,0,0,0,7-1.72,26,26,0,0,1,12.69-3h0c.42,0,.8,0,1.19,0a40.38,40.38,0,0,0,.64-7.09A41.22,41.22,0,0,0,41.23,0Z"/><path class="cls-2" d="M55.52,52c-.62-3.73-1.46-7.84-1.39-8.88,0-.21.07-.41.09-.62a.6.6,0,0,1,.45-.54c.69-.26,1.37-.55,2-.84a18.36,18.36,0,0,0,3.33-1.85,19.66,19.66,0,0,0,2-1.9,4.44,4.44,0,0,0,.62-.77l1.65.74L69,40l0,0a.38.38,0,0,0,.52-.15.39.39,0,0,0-.14-.53l-4.69-2.68-1.6-.74a9,9,0,0,0,.59-1.56,25.71,25.71,0,0,1,2.94,1l6.1,2.71h0a.38.38,0,0,0,.32-.7l-6.14-2.83a29.68,29.68,0,0,0-3.07-1.14A9.54,9.54,0,0,0,64,31.9l2.36.53,6.07,1.93h0a.4.4,0,0,0,.49-.25.4.4,0,0,0-.25-.49l-6.12-2L64,31a5.66,5.66,0,0,0-1.37-3.58,3.57,3.57,0,0,1-.31-.37.89.89,0,0,1-.21-.54Q62.05,25.25,62,24a1.76,1.76,0,0,1,.18-.9,4.68,4.68,0,0,0,.37-3.21,3.86,3.86,0,0,0-3.49-3l-.76,0a1.07,1.07,0,0,1-.75-.34,27.57,27.57,0,0,0-16.27-5.37c-16.4,0-29.69,14.67-29.69,32.78a36.18,36.18,0,0,0,.56,6.3c.9.38,1.71.76,2.47,1.13a13.34,13.34,0,0,0,7,1.71h.07a5.76,5.76,0,0,1,.07-.69c.15-.85,1.64-4.48.58-5.18a1.47,1.47,0,0,0-1.68.49c-1,1.27-1.32-.1-1.36-.54A9.44,9.44,0,0,1,19.71,44a13.41,13.41,0,0,1,4.83-6.9c.15-.11.74-.56.88-.68a.58.58,0,0,0,.18-.59.56.56,0,0,0-.5-.24,5.73,5.73,0,0,1-1.22,0c-.28-.22,0-.87.19-1.25a39.29,39.29,0,0,1,2.76-4.77c2.24-2.72,5.84-5.27,9-5.48C36.87,24,38,22,40.47,21.84a4.42,4.42,0,0,1,3.83,1.58,6.32,6.32,0,0,1,.79,3.41,5.53,5.53,0,0,1-.39,2A3.82,3.82,0,0,0,44,30.31c0,.17,0,.62.12.58s5.79-3.12,8.79-3.14a21,21,0,0,1,5.36,1c.14,0,.37,0,0-.59A5.74,5.74,0,0,0,57,27a2,2,0,0,0-.24,0c-1,0-1.55-1.47-1.63-2.85-.1-1.59.7-2.23,1.35-2.22a2.41,2.41,0,0,1,1.67,1.82,4.16,4.16,0,0,1,0,1.94,2.6,2.6,0,0,0-.16.71c0,.68,1.63,1.89,2.13,2.36l.32.34a3,3,0,0,1,.66,1.2l-.77-.18h0a.44.44,0,0,0-.54.34.45.45,0,0,0,.34.55h0l1.16.26a5.06,5.06,0,0,1,.06.53,4.29,4.29,0,0,1,0,.72l-.78-.27h0a.48.48,0,0,0-.3.92h0l.91.3a4.87,4.87,0,0,1-.5,1.28l-.93-.43h0a.44.44,0,0,0-.58.22.45.45,0,0,0,.22.59h0l.74.34c-.12.13-.21.28-.35.41a2.93,2.93,0,0,1-3.38.69c-.21-.09-.42-.18-.62-.29-.6-.35-1.21-.69-1.78-1.08a1,1,0,0,0-1.28,0c-1.8,1.44-3.48,1.09-5.64,1.38-.22,0-1.12.37-.16,1a4,4,0,0,0,1.09.38c1.79.51,3.38.68,4.86-.17a1.11,1.11,0,0,1,1.14,0,9.58,9.58,0,0,0,1.48.88l.81.27a17.69,17.69,0,0,1-2.31,1.4,14.19,14.19,0,0,1-5.66,1.5,22.39,22.39,0,0,1-2.83-.17A28.51,28.51,0,0,1,41.92,41a11.51,11.51,0,0,1-1.64-.5,9.45,9.45,0,0,1-2.4-1.82,23.8,23.8,0,0,1,4.23-1.54h0a.53.53,0,0,0,.37-.65.53.53,0,0,0-.65-.36,25.06,25.06,0,0,0-10.05,5.53.39.39,0,0,0,.51.58,24.48,24.48,0,0,1,5.44-3.49c-.41.88,2.65,5.27,7.54,6.44a7.76,7.76,0,0,0,1.8.12.79.79,0,0,1,.69.16,6.37,6.37,0,0,1-.13.74,23.1,23.1,0,0,1-1,2.57,27.2,27.2,0,0,1,7.28,2.53c.49.24.93.44,1.38.64l-.15-.06.15.06a1.89,1.89,0,0,0,.21.09h0Zm-20-34a2.36,2.36,0,0,0-2.14.74c-.41.51-.48,1.07-.26,2.27.08.4.19.85,0,1s-.53-.07-.62-.13A3,3,0,0,1,32.16,18c1.39-1.82,4-.84,4.14-.72a.5.5,0,0,1,.21.53C36.44,18,36.1,18,35.54,18Z"/><path class="cls-2" d="M94.29,38.7V12h13a10.72,10.72,0,0,1,4.85,1.05A7.84,7.84,0,0,1,115.38,16a8.14,8.14,0,0,1,1.14,4.31,7.46,7.46,0,0,1-1.41,4.48,8.38,8.38,0,0,1-3.77,2.92l5.91,11h-6.18l-5.23-10.22h-6V38.7ZM99.82,24h7a4.37,4.37,0,0,0,3-1A3.28,3.28,0,0,0,111,20.36a3.33,3.33,0,0,0-1.12-2.63,4.37,4.37,0,0,0-3-1h-7Z"/><path class="cls-2" d="M121.86,16.47a2.86,2.86,0,0,1-2.1-.88,2.9,2.9,0,0,1-.87-2.13,2.8,2.8,0,0,1,.87-2.08,2.92,2.92,0,0,1,2.1-.86,2.89,2.89,0,0,1,2.12.86,2.83,2.83,0,0,1,.86,2.08,2.93,2.93,0,0,1-.86,2.13A2.83,2.83,0,0,1,121.86,16.47ZM119.27,38.7V18.83h5.22V38.7Z"/><path class="cls-2" d="M134.45,38.7l-8.51-19.87h5.68L137,32.07l5.46-13.24H148L139.56,38.7Z"/><path class="cls-2" d="M158.7,39.09a10.75,10.75,0,0,1-9.23-5.1,9.75,9.75,0,0,1-1.41-5.2,10.24,10.24,0,0,1,5-8.93,10,10,0,0,1,5.15-1.37,9.42,9.42,0,0,1,5.09,1.39,10,10,0,0,1,3.51,3.8,11.52,11.52,0,0,1,1.27,5.49v1.37H153.4a5.78,5.78,0,0,0,1.15,2.14,5.52,5.52,0,0,0,1.94,1.47,6,6,0,0,0,2.48.51,7.26,7.26,0,0,0,2.44-.4,5.44,5.44,0,0,0,2-1.16l3.43,3.13a12,12,0,0,1-8.09,2.86Zm-5.37-12.28H163a5.46,5.46,0,0,0-1-2.08,5.05,5.05,0,0,0-1.69-1.4,4.76,4.76,0,0,0-2.14-.49,5,5,0,0,0-2.21.48,4.31,4.31,0,0,0-1.66,1.37A5.74,5.74,0,0,0,153.33,26.81Z"/><path class="cls-2" d="M170.72,38.7V18.83H176v2.22a6.17,6.17,0,0,1,2.27-2,6.68,6.68,0,0,1,3-.68,4.83,4.83,0,0,1,2.18.42v4.61a6.34,6.34,0,0,0-1.28-.4,7,7,0,0,0-1.39-.13,5.27,5.27,0,0,0-2.79.76,5.58,5.58,0,0,0-2,2.17V38.7Z"/><path class="cls-2" d="M193.37,39.09a17.28,17.28,0,0,1-5-.71,12.73,12.73,0,0,1-4.06-2l2.59-3.51a15.87,15.87,0,0,0,3.3,1.72,9.2,9.2,0,0,0,3.15.57,5.77,5.77,0,0,0,2.8-.59A1.76,1.76,0,0,0,197.19,33a1.48,1.48,0,0,0-.59-1.22,4.26,4.26,0,0,0-1.89-.65l-3.82-.57a8.22,8.22,0,0,1-4.48-1.92,5.1,5.1,0,0,1-1.54-3.88,5.56,5.56,0,0,1,1-3.35,6.4,6.4,0,0,1,2.88-2.18,11.58,11.58,0,0,1,4.35-.76,15.08,15.08,0,0,1,4.29.61A13.79,13.79,0,0,1,201.31,21l-2.52,3.39a13.05,13.05,0,0,0-3.15-1.48,10.06,10.06,0,0,0-3-.46,4.31,4.31,0,0,0-2.25.53,1.6,1.6,0,0,0-.88,1.41,1.47,1.47,0,0,0,.61,1.26,4.71,4.71,0,0,0,2.06.69l3.81.53a8,8,0,0,1,4.54,1.91,5,5,0,0,1,1.57,3.78A5.29,5.29,0,0,1,201,35.9a7.76,7.76,0,0,1-3.11,2.33A11.12,11.12,0,0,1,193.37,39.09Z"/><path class="cls-2" d="M94.29,70.73V44h7.13l7.28,14.42L116,44h7v26.7H117.9V51.09l-9.27,17.73L99.4,51V70.73Z"/><path class="cls-2" d="M132.92,71.07a8.63,8.63,0,0,1-3.74-.78,6.21,6.21,0,0,1-2.55-2.15,5.59,5.59,0,0,1-.92-3.17,5.21,5.21,0,0,1,2.14-4.44,9.79,9.79,0,0,1,6-1.59,14.49,14.49,0,0,1,4.88.81V58.3a3.18,3.18,0,0,0-1.07-2.6,4.83,4.83,0,0,0-3.12-.87,10.34,10.34,0,0,0-2.71.4,22.25,22.25,0,0,0-3.36,1.24l-1.87-3.89a29.25,29.25,0,0,1,4.5-1.57,17.89,17.89,0,0,1,4.27-.53,9.34,9.34,0,0,1,6.3,1.92,6.85,6.85,0,0,1,2.21,5.44V70.73h-5.15V69.32a8.26,8.26,0,0,1-2.63,1.33A10.92,10.92,0,0,1,132.92,71.07Zm-2.25-6.21a2.09,2.09,0,0,0,1,1.81,4.69,4.69,0,0,0,2.64.67,9,9,0,0,0,2.38-.31,5.94,5.94,0,0,0,2-1v-2.9a8.19,8.19,0,0,0-2-.59,13,13,0,0,0-2.21-.17,5.13,5.13,0,0,0-2.81.65A2.06,2.06,0,0,0,130.67,64.86Z"/><path class="cls-2" d="M147.19,70.73V50.86h5.26v2.21a6.24,6.24,0,0,1,2.27-2,6.56,6.56,0,0,1,3-.69,5,5,0,0,1,2.17.42v4.62a6.08,6.08,0,0,0-1.27-.41,7.89,7.89,0,0,0-1.39-.13,5.36,5.36,0,0,0-2.79.76,5.61,5.61,0,0,0-2,2.18V70.73Z"/><path class="cls-2" d="M164.81,48.49a2.86,2.86,0,0,1-2.1-.87,2.91,2.91,0,0,1-.88-2.14,2.79,2.79,0,0,1,.88-2.08,3,3,0,0,1,4.21,0,2.81,2.81,0,0,1,.86,2.08,2.93,2.93,0,0,1-.86,2.14A2.84,2.84,0,0,1,164.81,48.49Zm-2.6,22.24V50.86h5.23V70.73Z"/><path class="cls-2" d="M171,70.73V50.86h5.22V52.5a8.18,8.18,0,0,1,5.61-2,8,8,0,0,1,4.06,1,7.25,7.25,0,0,1,2.77,2.78,8.27,8.27,0,0,1,1,4.1V70.73h-5.19V59.17A3.87,3.87,0,0,0,180.25,55a5.22,5.22,0,0,0-2.36.51A4.78,4.78,0,0,0,176.17,57V70.73Z"/><path class="cls-2" d="M202.72,71.11A10.68,10.68,0,0,1,193.49,66a9.78,9.78,0,0,1-1.41-5.21,10.24,10.24,0,0,1,1.35-5.2,10,10,0,0,1,3.68-3.72,9.9,9.9,0,0,1,5.15-1.37,9.39,9.39,0,0,1,5.09,1.39,9.79,9.79,0,0,1,3.51,3.79,11.55,11.55,0,0,1,1.28,5.49v1.38H197.42a5.51,5.51,0,0,0,1.14,2.13,5.3,5.3,0,0,0,1.94,1.47,5.9,5.9,0,0,0,2.48.52,7.48,7.48,0,0,0,2.44-.4,5.29,5.29,0,0,0,2-1.17l3.43,3.13a12.65,12.65,0,0,1-3.75,2.17A12.81,12.81,0,0,1,202.72,71.11Zm-5.38-12.28H207a5.68,5.68,0,0,0-1-2.08,5,5,0,0,0-1.7-1.39,4.71,4.71,0,0,0-2.14-.5,5,5,0,0,0-2.21.48,4.58,4.58,0,0,0-1.66,1.37A6,6,0,0,0,197.34,58.83Z"/></g></g></svg>